<svg xmlns="http://www.w3.org/2000/svg" viewBox="12 50 176 108" width="64" height="64">
  <defs>
    <radialGradient id="bodyGrad" cx="40%" cy="35%" r="60%">
      <stop offset="0%" stop-color="#ff6050"/>
      <stop offset="50%" stop-color="#ee3030"/>
      <stop offset="100%" stop-color="#cc1818"/>
    </radialGradient>
    <radialGradient id="eyeGrad" cx="40%" cy="35%" r="50%">
      <stop offset="0%" stop-color="#88ddff"/>
      <stop offset="100%" stop-color="#2299dd"/>
    </radialGradient>
  </defs>
  <!-- Legs -->
  <g stroke="#cc2020" stroke-width="8" stroke-linecap="round" fill="none">
    <path d="M75 90 Q50 70 30 55" />
    <path d="M72 100 Q45 90 20 85" />
    <path d="M72 110 Q45 115 20 120" />
    <path d="M75 118 Q55 135 35 150" />
    <path d="M125 90 Q150 70 170 55" />
    <path d="M128 100 Q155 90 180 85" />
    <path d="M128 110 Q155 115 180 120" />
    <path d="M125 118 Q145 135 165 150" />
  </g>
  <!-- Leg tips -->
  <g fill="#ff5040">
    <circle cx="30" cy="55" r="7"/>
    <circle cx="20" cy="85" r="7"/>
    <circle cx="20" cy="120" r="7"/>
    <circle cx="35" cy="150" r="7"/>
    <circle cx="170" cy="55" r="7"/>
    <circle cx="180" cy="85" r="7"/>
    <circle cx="180" cy="120" r="7"/>
    <circle cx="165" cy="150" r="7"/>
  </g>
  <!-- Body -->
  <ellipse cx="100" cy="115" rx="32" ry="28" fill="url(#bodyGrad)" />
  <!-- Head -->
  <circle cx="100" cy="85" r="28" fill="url(#bodyGrad)" />
  <!-- Eyes -->
  <circle cx="88" cy="82" r="12" fill="#1a1a2e" />
  <circle cx="112" cy="82" r="12" fill="#1a1a2e" />
  <circle cx="88" cy="82" r="9" fill="url(#eyeGrad)" />
  <circle cx="112" cy="82" r="9" fill="url(#eyeGrad)" />
  <circle cx="84" cy="78" r="4" fill="white" opacity="0.85"/>
  <circle cx="108" cy="78" r="4" fill="white" opacity="0.85"/>
  <!-- Fangs -->
  <path d="M88 68 Q85 60 88 56" fill="none" stroke="#ff5040" stroke-width="5" stroke-linecap="round"/>
  <path d="M112 68 Q115 60 112 56" fill="none" stroke="#ff5040" stroke-width="5" stroke-linecap="round"/>
</svg>
